<svg version="1.1" id="Layer_1" xmlns="http://www.w3.org/2000/svg" x="0" y="0" viewBox="0 0 1565.8 436.3" xml:space="preserve">
  <style>
    .st0{fill:#282829}
  </style>
	<path class="st0" d="M494.5 212.9c-3.1-3-5.5-6.6-7.2-10.6-1.7-4.1-2.6-8.4-2.6-13v-12.4c0-4.6.9-9 2.7-13 1.8-4.1 4.2-7.6 7.2-10.6s6.6-5.4 10.6-7.2c4.1-1.8 8.4-2.7 13-2.7h66V157h-66c-2.7 0-5.3.5-7.7 1.6s-4.6 2.5-6.4 4.3c-1.8 1.8-3.2 3.9-4.3 6.3-1 2.4-1.6 4.9-1.6 7.7v12.4c0 2.7.5 5.2 1.6 7.6 1 2.4 2.5 4.4 4.2 6.3 1.8 1.8 3.9 3.2 6.3 4.3 2.4 1 4.9 1.6 7.7 1.6h66.2v13.7h-66c-4.6 0-9-.9-13.1-2.7-4.1-1.9-7.6-4.2-10.6-7.2zM625.1 176.8h59.6v11.6h-59.6v-11.6zM823.1 153.8c2.9 3.1 5.3 6.7 7.1 10.7 1.8 4.1 2.7 8.4 2.7 13v45.1h-13.7V192H743v30.6h-13.7v-45.1c0-4.6.9-9 2.7-13 1.8-4.1 4.2-7.6 7.2-10.6 3.1-3 6.6-5.4 10.7-7.2 4.1-1.8 8.4-2.7 12.9-2.7h36.5c4.7 0 9.1.9 13.1 2.7 4.1 1.8 7.6 4.2 10.7 7.1zm-3.9 24.6v-1c0-2.6-.5-5.1-1.6-7.5-1-2.4-2.5-4.4-4.3-6.3-1.8-1.8-3.9-3.2-6.3-4.3-2.4-1-4.9-1.6-7.7-1.6h-36.8c-2.6 0-5.1.5-7.5 1.6-2.4 1-4.4 2.5-6.3 4.3-1.8 1.8-3.2 3.9-4.3 6.3-1 2.4-1.6 4.9-1.6 7.7v.8h76.4zM876.6 222.7V209h74.2c2.7 0 5-1 7-2.9 1.9-1.9 2.9-4.3 2.9-7s-.9-4.7-2.8-6.1c-1.9-1.4-4.2-2-7-2H896c-3.2 0-6.3-.6-9.1-1.9-2.8-1.2-5.3-2.9-7.5-5s-3.9-4.6-5.1-7.5c-1.2-2.9-1.9-5.9-1.9-9.2 0-3.2.6-6.3 1.9-9.2 1.2-2.9 2.9-5.4 5-7.5 2.1-2.1 4.6-3.8 7.5-5 2.9-1.2 5.9-1.9 9.2-1.9h74.2v13.6H896c-2.8 0-5.1.9-6.9 2.8-1.8 1.9-2.8 4.2-3 6.8.2 2.9 1.3 5.4 3.1 7.4s4.1 3 6.8 3h54.9c3.2 0 6.3.5 9.2 1.6 2.9 1 5.4 2.5 7.5 4.4 2.1 1.9 3.8 4.2 5 6.9 1.2 2.7 1.9 5.7 1.9 8.9s-.6 6.3-1.9 9.2c-1.2 2.9-2.9 5.4-5 7.5-2.1 2.1-4.6 3.8-7.5 5-2.9 1.2-5.9 1.9-9.2 1.9h-74.3zM1103.9 157.9h-42.8v64.8h-13.7v-64.8h-42.7v-13.7h99.2v13.7zM1243.7 188.1c-3 2.9-6.4 5-10.2 6.3 1.7 2.3 3.6 4.7 5.6 7.1 2 2.4 4 4.9 6 7.3 2 2.4 3.9 4.8 5.8 7.1s3.7 4.6 5.3 6.7h-17.1l-21.7-27.1h-59.6v27.1h-13.6v-78.5h80.8c2.6 0 5.2.4 7.8 1.2 2.6.8 4.9 1.8 7 3.1 3.6 2.3 6.4 5.4 8.6 9.2 2.2 3.8 3.3 7.9 3.3 12.3 0 3.6-.7 7-2.1 10-1.3 3.1-3.3 5.8-5.9 8.2zm-86-6.2h67.7c1.7 0 3.3-.3 4.9-.9 1.5-.6 2.9-1.5 4.1-2.6 1.2-1.1 2.1-2.3 2.8-3.8.7-1.4 1-3 1-4.7 0-1.7-.4-3.3-1.1-4.8-.7-1.5-1.7-2.7-2.9-3.8-1.2-1.1-2.6-1.9-4.2-2.6-1.6-.6-3.3-.9-5-.9h-67.3v24.1zM1391.3 153.8c2.9 3.1 5.3 6.7 7.1 10.7 1.8 4.1 2.7 8.4 2.7 13v45.1h-13.7V192h-76.2v30.6h-13.7v-45.1c0-4.6.9-9 2.7-13 1.8-4.1 4.2-7.6 7.2-10.6 3.1-3 6.6-5.4 10.7-7.2 4.1-1.8 8.4-2.7 12.9-2.7h36.5c4.7 0 9.1.9 13.1 2.7 4.1 1.8 7.7 4.2 10.7 7.1zm-3.9 24.6v-1c0-2.6-.5-5.1-1.6-7.5-1-2.4-2.5-4.4-4.3-6.3-1.8-1.8-3.9-3.2-6.3-4.3-2.4-1-4.9-1.6-7.7-1.6h-36.8c-2.6 0-5.1.5-7.5 1.6-2.4 1-4.4 2.5-6.3 4.3-1.8 1.8-3.2 3.9-4.3 6.3-1 2.4-1.6 4.9-1.6 7.7v.8h76.4zM1458.5 144.3v44.9c0 5.6 1.9 10.3 5.8 13.9 3.9 3.9 8.6 5.9 14 5.9h66v13.7h-66c-4.6 0-9-.9-13-2.7-4.1-1.8-7.6-4.2-10.6-7.2-3-2.9-5.4-6.4-7.1-10.5-1.7-4.1-2.6-8.4-2.6-13.2v-44.9h13.5zM529.7 258c1.5 1.6 2.7 3.4 3.6 5.4.9 2.1 1.3 4.3 1.3 6.6v24.5h-4.5v-17.9H485v17.9h-4.5V270c0-2.4.4-4.6 1.3-6.6.9-2.1 2.1-3.8 3.7-5.4 1.6-1.5 3.4-2.8 5.4-3.6 2.1-.9 4.2-1.3 6.6-1.3h20.2c2.4 0 4.6.4 6.6 1.3s3.8 2.1 5.4 3.6zm.4 14v-2.1c0-1.7-.3-3.3-1-4.8s-1.6-2.8-2.7-3.9-2.5-2-4-2.7c-1.5-.7-3.1-1-4.8-1h-20.3c-1.7 0-3.3.3-4.8 1s-2.8 1.6-3.9 2.7-2 2.5-2.7 3.9c-.7 1.5-1 3.1-1 4.8v2h45.2zM564.7 261.2c-1.2 1.2-2.1 2.5-2.7 4-.6 1.5-1 3.1-1 4.8v1.5h47.4v4.5H561v1.6c0 1.7.3 3.3 1 4.8s1.6 2.8 2.7 3.9 2.5 2 4 2.7c1.5.7 3.1 1 4.8 1h35v4.5h-35c-2.4 0-4.6-.4-6.6-1.3-2.1-.9-3.8-2.1-5.4-3.7-1.5-1.6-2.8-3.4-3.6-5.4-.9-2.1-1.3-4.2-1.3-6.5V270c0-2.4.4-4.6 1.3-6.6.9-2.1 2.1-3.8 3.7-5.4 1.6-1.5 3.4-2.8 5.4-3.6 2.1-.9 4.2-1.3 6.6-1.3h35v4.5h-35c-1.7 0-3.3.3-4.8 1-1.6.6-3 1.5-4.1 2.6zM684.5 274.7c-2 1.9-4.4 3.1-7.3 3.5l12.1 16.3h-5.7l-12-16.1h-35.1v16.1H632V253h43.2c1.4 0 2.7.2 3.9.5 1.3.4 2.4.9 3.4 1.6 1.8 1.2 3.2 2.7 4.3 4.5 1.1 1.9 1.6 3.9 1.6 6.1 0 1.8-.3 3.4-1 4.9-.7 1.6-1.6 2.9-2.9 4.1zm-48-.9h38.9c1.1 0 2.2-.2 3.2-.6 1-.4 1.9-1 2.7-1.7.8-.7 1.4-1.6 1.9-2.6s.7-2 .7-3.2c0-1.2-.2-2.2-.7-3.2-.5-1-1.1-1.9-1.9-2.6-.8-.7-1.8-1.3-2.8-1.7a9.6 9.6 0 0 0-3.3-.6h-38.6v16.2zM728.2 294.5c-2.4 0-4.6-.4-6.6-1.3-2.1-.9-3.8-2.1-5.4-3.6-1.5-1.5-2.8-3.3-3.6-5.4-.9-2.1-1.3-4.3-1.3-6.6V270c0-2.3.4-4.5 1.3-6.6.9-2.1 2.1-3.9 3.6-5.4 1.5-1.5 3.3-2.8 5.4-3.6 2.1-.9 4.3-1.3 6.6-1.3h30.7c2.4 0 4.6.4 6.6 1.3 2.1.9 3.9 2.1 5.4 3.6 1.5 1.5 2.8 3.3 3.6 5.4.9 2.1 1.3 4.3 1.3 6.6v7.5c0 2.4-.4 4.6-1.3 6.6-.9 2.1-2.1 3.8-3.6 5.4-1.5 1.5-3.3 2.8-5.4 3.6-2.1.9-4.3 1.3-6.6 1.3h-30.7zM715.7 270v7.5c0 1.7.3 3.3 1 4.8s1.6 2.8 2.7 3.9 2.5 2 3.9 2.7c1.5.7 3.1 1 4.8 1h30.7c1.7 0 3.3-.3 4.8-1s2.8-1.6 4-2.7c1.1-1.1 2-2.5 2.7-3.9.7-1.5 1-3.1 1-4.8V270c0-1.7-.3-3.3-1-4.8s-1.6-2.8-2.7-3.9-2.5-2-4-2.7c-1.5-.7-3.1-1-4.8-1h-30.7c-1.7 0-3.3.3-4.8 1s-2.8 1.6-3.9 2.7-2 2.5-2.7 3.9c-.7 1.5-1 3.1-1 4.8zM837.3 294.5h-39.5V290h39.5c1 0 1.9-.2 2.7-.5.8-.4 1.6-.9 2.2-1.5.6-.6 1.1-1.4 1.5-2.2.4-.8.5-1.7.5-2.7 0-1-.2-1.9-.5-2.7-.4-.9-.8-1.6-1.5-2.2-.6-.6-1.4-1.1-2.2-1.5-.9-.4-1.8-.5-2.7-.5H807c-1.6 0-3-.3-4.4-.9-1.4-.6-2.6-1.4-3.7-2.5-1.1-1-1.9-2.3-2.5-3.6-.6-1.4-.9-2.9-.9-4.5s.3-3.1.9-4.5c.6-1.4 1.4-2.6 2.5-3.7 1-1 2.3-1.9 3.6-2.5 1.4-.6 2.9-.9 4.5-.9h39.5v4.5H807c-1 0-1.9.2-2.7.6-.8.4-1.5.9-2.2 1.5-.6.6-1.1 1.3-1.5 2.2-.4.8-.6 1.7-.6 2.7.2 2 .9 3.7 2.2 5 1.3 1.4 2.9 2 4.8 2h30.3c1.6 0 3.1.3 4.5.9 1.4.6 2.6 1.4 3.6 2.5 1 1 1.9 2.3 2.5 3.6.6 1.4.9 2.9.9 4.5s-.3 3.1-.9 4.5c-.6 1.4-1.4 2.6-2.5 3.7-1 1.1-2.3 1.9-3.6 2.5-1.4.4-2.9.7-4.5.7zM875.2 294.5h-4.6V253h43.5c1.7 0 3.4.3 4.9 1 1.6.7 3 1.6 4.2 2.8 1.2 1.2 2.2 2.5 2.9 4 .7 1.5 1.1 3.2 1.1 4.9 0 1.8-.4 3.4-1.1 5-.7 1.6-1.7 2.9-2.9 4s-2.6 2-4.2 2.7c-1.6.7-3.3 1-5.1 1h-38.6v16.1zm38.8-20.7c1.2 0 2.3-.2 3.3-.6 1-.4 1.9-1 2.7-1.7.8-.7 1.4-1.6 1.9-2.6s.7-2.1.8-3.2c0-1.1-.3-2.2-.8-3.2s-1.1-1.9-1.9-2.6c-.8-.7-1.7-1.3-2.8-1.7a9.6 9.6 0 0 0-3.3-.6h-38.6v16.3H914zM998.3 258c1.5 1.6 2.7 3.4 3.6 5.4.9 2.1 1.3 4.3 1.3 6.6v24.5h-4.5v-17.9h-45.1v17.9H949V270c0-2.4.4-4.6 1.3-6.6.9-2.1 2.1-3.8 3.7-5.4 1.6-1.5 3.4-2.8 5.4-3.6 2.1-.9 4.2-1.3 6.6-1.3h20.2c2.4 0 4.6.4 6.6 1.3 2.1.9 3.9 2.1 5.5 3.6zm.4 14v-2.1c0-1.7-.3-3.3-1-4.8s-1.6-2.8-2.7-3.9-2.5-2-4-2.7c-1.5-.7-3.1-1-4.8-1h-20.3c-1.7 0-3.3.3-4.8 1s-2.8 1.6-3.9 2.7-2 2.5-2.7 3.9c-.7 1.5-1 3.1-1 4.8v2h45.2zM1030.1 289.5c-1.6-1.6-2.8-3.4-3.7-5.4-.9-2.1-1.3-4.3-1.3-6.6V270c0-2.3.4-4.5 1.3-6.6.9-2.1 2.1-3.9 3.6-5.4 1.5-1.5 3.3-2.8 5.4-3.6 2.1-.9 4.3-1.3 6.6-1.3h34.9v4.5H1042c-1.7 0-3.3.3-4.8 1s-2.8 1.6-4 2.7c-1.1 1.1-2 2.5-2.7 3.9-.7 1.5-1 3.1-1 4.8v7.5c0 1.7.3 3.3 1 4.8s1.5 2.8 2.7 4c1.1 1.1 2.4 2 3.9 2.7 1.5.7 3.1 1 4.8 1h35.1v4.5h-34.9c-2.4 0-4.6-.4-6.6-1.3-2.1-1-3.9-2.2-5.4-3.7zM1107.1 261.2c-1.2 1.2-2.1 2.5-2.7 4-.6 1.5-1 3.1-1 4.8v1.5h47.4v4.5h-47.4v1.6c0 1.7.3 3.3 1 4.8s1.6 2.8 2.7 3.9 2.5 2 4 2.7c1.5.7 3.1 1 4.8 1h35v4.5h-35c-2.4 0-4.6-.4-6.6-1.3-2.1-.9-3.8-2.1-5.4-3.7-1.5-1.6-2.8-3.4-3.6-5.4-.9-2.1-1.3-4.2-1.3-6.5V270c0-2.4.4-4.6 1.3-6.6.9-2.1 2.1-3.8 3.7-5.4 1.6-1.5 3.4-2.8 5.4-3.6 2.1-.9 4.2-1.3 6.6-1.3h35v4.5h-35c-1.7 0-3.3.3-4.8 1-1.6.6-3 1.5-4.1 2.6z"/>
	<g>
    <circle class="st0" cx="218" cy="218.9" r="196.9"/>
		<path fill-rule="evenodd" clip-rule="evenodd" fill="#fff" stroke="#fff" stroke-width="2" stroke-miterlimit="10" d="M138.7 218.9v4.4l30.1 29.5-1.1 6.6h-6l-53.1 52.5h36.1l47.1-45.4h42.1L138.2 366h64.5l101.2-102.8h20.8l45.4-44.3-45.4-44.3h-20.8L202.7 71.8h-64.5l95.7 100.1h-42.1l-47.1-46h-36.1l53.1 52.5h6l1.1 6.6-30.1 29.5v4.4z"/>
  </g>
</svg>
